<svg width="177" height="35" viewBox="0 0 177 35" fill="none" xmlns="http://www.w3.org/2000/svg">
<path d="M171.137 12.1706H170.396V8.81517H169.143V8.13726H172.39V8.81517H171.137V12.1706ZM173.307 12.1706H172.617V8.13726H173.443L174.583 11.054L175.711 8.13726H176.548V12.1706H175.83V9.6469L174.839 12.1706H174.298L173.307 9.6469V12.1706Z" fill="white"/>
<path d="M16.9531 11.6466L22.4707 6.12903L26.002 9.66028L20.2646 15.3976H28.3828V20.3927H20.1963L26.002 26.1984L22.4707 29.7306L16.9531 24.212V32.1105H11.958V23.713L16.8828 24.2482L20.1406 20.4103L20.2559 15.3673L11.958 23.7091V23.7042L5.93262 29.7306L2.40137 26.1984L8.20703 20.3927H0V15.3976H8.13867L2.40137 9.66028L5.93262 6.12903L11.958 12.1544V3.72766H16.9531V11.6466Z" fill="#E2FD48"/>
<path d="M44.0524 29.4553C42.1155 29.4553 40.397 29.009 38.8968 28.1165C37.3967 27.205 36.2288 25.9517 35.3933 24.3566C34.5767 22.7615 34.1685 20.9576 34.1685 18.9447C34.1685 16.8939 34.5767 15.0804 35.3933 13.5043C36.2288 11.9092 37.3967 10.6749 38.8968 9.80139C40.397 8.9089 42.1155 8.46265 44.0524 8.46265C45.9893 8.46265 47.7078 8.8994 49.208 9.77291C50.7271 10.6844 51.8949 11.9377 52.7115 13.5328C53.528 15.1089 53.9363 16.9129 53.9363 18.9447C53.9363 19.3055 53.8888 19.9416 53.7939 20.8531V29.0565C52.7495 29.0565 52.0089 28.9141 51.5721 28.6292C51.1354 28.3444 50.8126 27.8317 50.6037 27.0911C49.7492 27.8507 48.7617 28.4298 47.6413 28.8286C46.54 29.2464 45.3437 29.4553 44.0524 29.4553ZM44.0524 25.9233C44.9639 25.9233 45.7519 25.8188 46.4165 25.6099C47.1002 25.3821 47.6508 24.9928 48.0686 24.4421C47.8787 24.4611 47.6224 24.4706 47.2995 24.4706C46.2551 24.4706 45.543 24.2712 45.1633 23.8724C44.8025 23.4547 44.6221 22.771 44.6221 21.8216V21.1095H49.8346C49.9675 20.3879 50.034 19.6378 50.034 18.8593C50.034 16.8084 49.5118 15.1469 48.4674 13.8746C47.423 12.6023 45.9513 11.9662 44.0524 11.9662C42.1724 11.9662 40.7008 12.6118 39.6374 13.9031C38.574 15.1753 38.0423 16.8559 38.0423 18.9447C38.0423 21.0905 38.574 22.79 39.6374 24.0433C40.7198 25.2966 42.1914 25.9233 44.0524 25.9233ZM67.4919 13.7891V28.7432H65.1278C64.8619 28.7432 64.6246 28.6577 64.4157 28.4868C64.2258 28.3159 64.1118 28.0975 64.0739 27.8317C63.0674 28.6482 61.8142 29.0565 60.314 29.0565C58.6809 29.0565 57.3992 28.6102 56.4687 27.7177C55.5382 26.8252 55.073 25.5909 55.073 24.0148V13.7891H58.5195V23.8439C58.5195 24.5275 58.7284 25.0498 59.1462 25.4105C59.5639 25.7713 60.1716 25.9517 60.9691 25.9517C61.8806 25.9517 62.6212 25.6669 63.1909 25.0972C63.7605 24.5086 64.0454 23.7585 64.0454 22.847V13.7891H67.4919ZM75.8689 29.4268C74.4257 29.4268 73.1534 29.085 72.052 28.4014C70.9696 27.6988 70.1246 26.7493 69.517 25.553C68.9283 24.3566 68.634 23.0369 68.634 21.5937C68.634 20.1125 68.9378 18.7833 69.5454 17.606C70.1531 16.4096 70.9981 15.4697 72.0805 14.7861C73.1629 14.1025 74.3877 13.7606 75.7549 13.7606C77.2931 13.7606 78.5938 14.1499 79.6572 14.9285C80.7206 15.707 81.4992 16.7799 81.9929 18.1472C82.5056 19.5144 82.724 21.0525 82.648 22.7615H72.2229C72.3938 23.8819 72.7926 24.7554 73.4192 25.3821C74.0649 25.9897 74.8814 26.2935 75.8689 26.2935C77.464 26.2935 78.4894 25.6194 78.9451 24.2712C79.135 23.7585 79.4483 23.5021 79.8851 23.5021H82.5056C82.2777 25.3441 81.5751 26.7968 80.3978 27.8602C79.2395 28.9046 77.7298 29.4268 75.8689 29.4268ZM79.0021 19.8277C78.6793 17.7959 77.5969 16.7799 75.7549 16.7799C74.8814 16.7799 74.1503 17.0458 73.5617 17.5775C72.973 18.0902 72.5647 18.8403 72.3369 19.8277H79.0021ZM96.1994 13.7891V28.7432H93.8353C93.5694 28.7432 93.3321 28.6577 93.1232 28.4868C92.9333 28.3159 92.8194 28.0975 92.7814 27.8317C91.7749 28.6482 90.5217 29.0565 89.0215 29.0565C87.3884 29.0565 86.1067 28.6102 85.1762 27.7177C84.2457 26.8252 83.7805 25.5909 83.7805 24.0148V13.7891H87.227V23.8439C87.227 24.5275 87.4359 25.0498 87.8537 25.4105C88.2714 25.7713 88.8791 25.9517 89.6766 25.9517C90.5881 25.9517 91.3287 25.6669 91.8984 25.0972C92.4681 24.5086 92.7529 23.7585 92.7529 22.847V13.7891H96.1994ZM104.576 29.4268C103.133 29.4268 101.861 29.085 100.76 28.4014C99.6771 27.6988 98.8321 26.7493 98.2245 25.553C97.6358 24.3566 97.3415 23.0369 97.3415 21.5937C97.3415 20.1125 97.6453 18.7833 98.2529 17.606C98.8606 16.4096 99.7056 15.4697 100.788 14.7861C101.87 14.1025 103.095 13.7606 104.462 13.7606C106.001 13.7606 107.301 14.1499 108.365 14.9285C109.428 15.707 110.207 16.7799 110.7 18.1472C111.213 19.5144 111.431 21.0525 111.356 22.7615H100.93C101.101 23.8819 101.5 24.7554 102.127 25.3821C102.772 25.9897 103.589 26.2935 104.576 26.2935C106.171 26.2935 107.197 25.6194 107.653 24.2712C107.843 23.7585 108.156 23.5021 108.593 23.5021H111.213C110.985 25.3441 110.283 26.7968 109.105 27.8602C107.947 28.9046 106.437 29.4268 104.576 29.4268ZM107.71 19.8277C107.387 17.7959 106.304 16.7799 104.462 16.7799C103.589 16.7799 102.858 17.0458 102.269 17.5775C101.681 18.0902 101.272 18.8403 101.044 19.8277H107.71ZM116.191 29.0565H112.488V8.88991H126.189L125.306 12.2795H116.191V16.9224H124.052L123.198 20.255H116.191V29.0565ZM132.143 29.4268C130.757 29.4268 129.513 29.085 128.412 28.4014C127.311 27.6988 126.447 26.7493 125.82 25.553C125.212 24.3566 124.909 23.0369 124.909 21.5937C124.909 20.1125 125.212 18.7738 125.82 17.5775C126.447 16.3812 127.311 15.4507 128.412 14.7861C129.513 14.1025 130.757 13.7606 132.143 13.7606C133.587 13.7606 134.849 14.1119 135.932 14.8146C137.033 15.4982 137.878 16.4381 138.467 17.6345C139.074 18.8118 139.378 20.1315 139.378 21.5937C139.378 23.0559 139.074 24.3851 138.467 25.5815C137.859 26.7778 137.005 27.7177 135.903 28.4014C134.802 29.085 133.549 29.4268 132.143 29.4268ZM132.143 26.2935C133.302 26.2935 134.213 25.8853 134.878 25.0687C135.542 24.2332 135.875 23.0749 135.875 21.5937C135.875 20.1125 135.542 18.9542 134.878 18.1187C134.213 17.2642 133.302 16.8369 132.143 16.8369C131.004 16.8369 130.093 17.2642 129.409 18.1187C128.744 18.9542 128.412 20.1125 128.412 21.5937C128.412 23.0559 128.744 24.2047 129.409 25.0403C130.093 25.8758 131.004 26.2935 132.143 26.2935ZM140.528 29.0565V14.1025H142.892C143.215 14.1025 143.471 14.2164 143.661 14.4443C143.87 14.6531 143.974 14.938 143.974 15.2988C145.057 14.4063 146.139 13.96 147.222 13.96C147.753 13.96 148.332 14.0835 148.959 14.3303V17.3496C148.313 17.2357 147.734 17.1787 147.222 17.1787C146.082 17.1787 145.256 17.473 144.744 18.0617C144.231 18.6314 143.974 19.5524 143.974 20.8246V29.0565H140.528ZM150.111 29.0565V14.1025H152.475C152.76 14.1025 152.998 14.1974 153.187 14.3873C153.396 14.5582 153.52 14.7766 153.558 15.0424C154.032 14.6436 154.564 14.3398 155.153 14.1309C155.741 13.9031 156.349 13.7891 156.976 13.7891C157.735 13.7891 158.428 13.9505 159.055 14.2734C159.682 14.5962 160.204 15.0614 160.622 15.6691C161.134 15.0614 161.742 14.5962 162.445 14.2734C163.166 13.9505 163.926 13.7891 164.723 13.7891C166.186 13.7891 167.353 14.2449 168.227 15.1564C169.1 16.0678 169.537 17.2926 169.537 18.8308V29.0565H166.091V18.9162C166.091 18.3086 165.92 17.8243 165.578 17.4636C165.236 17.0838 164.79 16.8939 164.239 16.8939C163.499 16.8939 162.862 17.1882 162.331 17.7769C161.799 18.3466 161.533 19.0586 161.533 19.9132V29.0565H158.087V18.9162C158.087 18.2706 157.935 17.7769 157.631 17.4351C157.346 17.0743 156.938 16.8939 156.406 16.8939C155.95 16.8939 155.495 17.0458 155.039 17.3496C154.602 17.6534 154.241 18.0427 153.956 18.5175C153.691 18.9732 153.558 19.4384 153.558 19.9132V29.0565H150.111Z" fill="white"/>
</svg>
