<svg width="181" height="31" viewBox="0 0 181 31" fill="none" xmlns="http://www.w3.org/2000/svg">
<path d="M175.134 6.22183H174.391V2.85503H173.134V2.1748H176.392V2.85503H175.134V6.22183ZM177.312 6.22183H176.62V2.1748H177.449L178.592 5.10147L179.723 2.1748H180.564V6.22183H179.844V3.68958L178.849 6.22183H178.306L177.312 3.68958V6.22183Z" fill="white"/>
<path d="M48.2888 27.2994C46.3454 27.2994 44.621 26.8517 43.1157 25.9561C41.6105 25.0415 40.4387 23.784 39.6003 22.1835C38.781 20.5829 38.3713 18.7728 38.3713 16.7531C38.3713 14.6953 38.781 12.8757 39.6003 11.2942C40.4387 9.69369 41.6105 8.45516 43.1157 7.57871C44.621 6.68318 46.3454 6.23542 48.2888 6.23542C50.2323 6.23542 51.9567 6.67366 53.462 7.55013C54.9863 8.46472 56.1581 9.72227 56.9774 11.3228C57.7967 12.9043 58.2063 14.7143 58.2063 16.7531C58.2063 17.1151 58.1587 17.7534 58.0634 18.668V26.8993C57.0155 26.8993 56.2724 26.7564 55.8342 26.4706C55.3959 26.1848 55.072 25.6703 54.8624 24.9272C54.005 25.6893 53.0142 26.2705 51.89 26.6706C50.7849 27.0898 49.5845 27.2994 48.2888 27.2994ZM48.2888 23.7554C49.2034 23.7554 49.9941 23.6506 50.661 23.441C51.347 23.2124 51.8996 22.8218 52.3187 22.2692C52.1282 22.2882 51.871 22.2978 51.547 22.2978C50.4991 22.2978 49.7846 22.0977 49.4035 21.6976C49.0415 21.2784 48.8605 20.5925 48.8605 19.6398V18.9253H54.0907C54.2241 18.2012 54.2908 17.4486 54.2908 16.6674C54.2908 14.6096 53.7668 12.9423 52.7189 11.6658C51.6709 10.3892 50.1942 9.75085 48.2888 9.75085C46.4025 9.75085 44.9259 10.3986 43.8588 11.6943C42.7918 12.9709 42.2583 14.6572 42.2583 16.7531C42.2583 18.9062 42.7918 20.6115 43.8588 21.8691C44.9449 23.1266 46.4215 23.7554 48.2888 23.7554ZM71.8081 11.58V26.5849H69.4359C69.1691 26.5849 68.931 26.4991 68.7214 26.3277C68.5309 26.1562 68.4165 25.9371 68.3784 25.6703C67.3685 26.4896 66.111 26.8993 64.6058 26.8993C62.9671 26.8993 61.681 26.4515 60.7474 25.556C59.8137 24.6604 59.3469 23.422 59.3469 21.8405V11.58H62.8052V21.669C62.8052 22.3549 63.0148 22.8789 63.4339 23.2409C63.8531 23.6029 64.4628 23.784 65.2631 23.784C66.1777 23.784 66.9208 23.4982 67.4924 22.9266C68.064 22.3359 68.3498 21.5833 68.3498 20.6687V11.58H71.8081ZM80.2135 27.2708C78.7654 27.2708 77.4888 26.9279 76.3837 26.2419C75.2976 25.537 74.4497 24.5842 73.84 23.3838C73.2494 22.1835 72.954 20.8592 72.954 19.4111C72.954 17.9249 73.2588 16.5912 73.8686 15.4098C74.4783 14.2094 75.3262 13.2663 76.4123 12.5803C77.4983 11.8944 78.7273 11.5514 80.0992 11.5514C81.6425 11.5514 82.9477 11.942 84.0147 12.7232C85.0818 13.5045 85.8629 14.581 86.3584 15.9529C86.8728 17.3247 87.0919 18.8681 87.0157 20.5829H76.5552C76.7266 21.7071 77.1268 22.5836 77.7556 23.2124C78.4034 23.8221 79.2227 24.1269 80.2135 24.1269C81.814 24.1269 82.8429 23.4506 83.3002 22.0977C83.4907 21.5833 83.8051 21.326 84.2434 21.326H86.8728C86.6442 23.1742 85.9392 24.6318 84.7578 25.6989C83.5956 26.7468 82.0808 27.2708 80.2135 27.2708ZM83.3574 17.6391C83.0334 15.6003 81.9474 14.581 80.0992 14.581C79.2227 14.581 78.4891 14.8478 77.8985 15.3812C77.3078 15.8957 76.8981 16.6484 76.6695 17.6391H83.3574ZM100.613 11.58V26.5849H98.2408C97.9746 26.5849 97.7362 26.4991 97.5263 26.3277C97.336 26.1562 97.2217 25.9371 97.1833 25.6703C96.174 26.4896 94.9165 26.8993 93.4106 26.8993C91.7726 26.8993 90.4865 26.4515 89.5524 25.556C88.6188 24.6604 88.152 23.422 88.152 21.8405V11.58H91.6101V21.669C91.6101 22.3549 91.8199 22.8789 92.2388 23.2409C92.6586 23.6029 93.2677 23.784 94.068 23.784C94.9826 23.784 95.7257 23.4982 96.2973 22.9266C96.8689 22.3359 97.1547 21.5833 97.1547 20.6687V11.58H100.613ZM109.018 27.2708C107.571 27.2708 106.294 26.9279 105.189 26.2419C104.103 25.537 103.255 24.5842 102.645 23.3838C102.055 22.1835 101.759 20.8592 101.759 19.4111C101.759 17.9249 102.064 16.5912 102.673 15.4098C103.283 14.2094 104.131 13.2663 105.217 12.5803C106.303 11.8944 107.532 11.5514 108.904 11.5514C110.447 11.5514 111.753 11.942 112.82 12.7232C113.887 13.5045 114.668 14.581 115.163 15.9529C115.678 17.3247 115.897 18.8681 115.821 20.5829H105.36C105.532 21.7071 105.932 22.5836 106.56 23.2124C107.209 23.8221 108.028 24.1269 109.018 24.1269C110.619 24.1269 111.648 23.4506 112.105 22.0977C112.296 21.5833 112.611 21.326 113.048 21.326H115.678C115.449 23.1742 114.744 24.6318 113.563 25.6989C112.401 26.7468 110.886 27.2708 109.018 27.2708ZM112.162 17.6391C111.839 15.6003 110.753 14.581 108.904 14.581C108.028 14.581 107.295 14.8478 106.703 15.3812C106.113 15.8957 105.703 16.6484 105.474 17.6391H112.162ZM120.673 26.8993H116.958V6.66413H130.705L129.819 10.0652H120.673V14.7239H128.561L127.704 18.0678H120.673V26.8993ZM136.679 27.2708C135.289 27.2708 134.041 26.9279 132.935 26.2419C131.83 25.537 130.963 24.5842 130.334 23.3838C129.725 22.1835 129.42 20.8592 129.42 19.4111C129.42 17.9249 129.725 16.5816 130.334 15.3812C130.963 14.1809 131.83 13.2473 132.935 12.5803C134.041 11.8944 135.289 11.5514 136.679 11.5514C138.128 11.5514 139.394 11.904 140.48 12.6089C141.586 13.2949 142.434 14.238 143.024 15.4384C143.634 16.6198 143.939 17.944 143.939 19.4111C143.939 20.8783 143.634 22.212 143.024 23.4124C142.415 24.6128 141.558 25.556 140.452 26.2419C139.347 26.9279 138.089 27.2708 136.679 27.2708ZM136.679 24.1269C137.842 24.1269 138.757 23.7173 139.423 22.898C140.09 22.0596 140.423 20.8973 140.423 19.4111C140.423 17.9249 140.09 16.7627 139.423 15.9243C138.757 15.0669 137.842 14.6381 136.679 14.6381C135.536 14.6381 134.621 15.0669 133.935 15.9243C133.269 16.7627 132.935 17.9249 132.935 19.4111C132.935 20.8783 133.269 22.031 133.935 22.8694C134.621 23.7078 135.536 24.1269 136.679 24.1269ZM145.093 26.8993V11.8944H147.465C147.788 11.8944 148.045 12.0087 148.236 12.2374C148.445 12.447 148.551 12.7328 148.551 13.0948C149.637 12.1992 150.723 11.7515 151.809 11.7515C152.342 11.7515 152.924 11.8754 153.552 12.123V15.1526C152.904 15.0383 152.324 14.9811 151.809 14.9811C150.666 14.9811 149.837 15.2765 149.323 15.8671C148.808 16.4387 148.551 17.3629 148.551 18.6394V26.8993H145.093ZM154.708 26.8993V11.8944H157.08C157.366 11.8944 157.605 11.9897 157.795 12.1802C158.005 12.3517 158.128 12.5708 158.166 12.8376C158.643 12.4374 159.177 12.1326 159.767 11.923C160.357 11.6943 160.967 11.58 161.596 11.58C162.358 11.58 163.054 11.7419 163.683 12.0659C164.311 12.3898 164.836 12.8566 165.255 13.4663C165.769 12.8566 166.379 12.3898 167.084 12.0659C167.808 11.7419 168.57 11.58 169.37 11.58C170.838 11.58 172.009 12.0373 172.886 12.9519C173.762 13.8665 174.2 15.0954 174.2 16.6388V26.8993H170.742V16.7245C170.742 16.1148 170.571 15.6289 170.228 15.2669C169.885 14.8858 169.437 14.6953 168.884 14.6953C168.141 14.6953 167.503 14.9907 166.969 15.5813C166.436 16.1529 166.169 16.8674 166.169 17.7249V26.8993H162.711V16.7245C162.711 16.0767 162.558 15.5813 162.254 15.2383C161.968 14.8764 161.558 14.6953 161.025 14.6953C160.567 14.6953 160.11 14.8478 159.653 15.1526C159.214 15.4574 158.852 15.8481 158.567 16.3244C158.3 16.7817 158.166 17.2485 158.166 17.7249V26.8993H154.708Z" fill="white"/>
<path d="M18.1279 8.45801L18.1338 8.45215L18.1387 8.45703L24.0283 2.56738L27.8047 6.34375L21.915 12.2334L21.9326 12.251L21.7383 12.4443L21.7393 12.4072L12.8633 21.3311L18.1338 21.9033L21.5977 17.8213L27.8047 24.0283L24.0283 27.8047L18.1279 21.9043V30.3496H12.7871V21.3965L12.5791 21.6045L12.5615 21.5869L6.34473 27.8047L2.56738 24.0283L8.77637 17.8193H0V12.4785H8.70117L2.56738 6.34473L6.34473 2.56738L12.7871 9.00977V0H18.1279V8.45801ZM30.3496 12.4785V17.8193H21.6006L21.6172 17.7998L21.7373 12.4785H30.3496Z" fill="#E2FD48"/>
</svg>
