<svg width="177" height="35" viewBox="0 0 177 35" fill="none" xmlns="http://www.w3.org/2000/svg">
<path d="M171.137 11.7017H170.396V8.3463H169.143V7.66839H172.39V8.3463H171.137V11.7017ZM173.307 11.7017H172.617V7.66839H173.443L174.583 10.5851L175.711 7.66839H176.548V11.7017H175.83V9.17803L174.839 11.7017H174.298L173.307 9.17803V11.7017Z" fill="black"/>
<path d="M16.9531 11.1777L22.4707 5.66016L26.002 9.19141L20.2646 14.9287H28.3828V19.9238H20.1963L26.002 25.7295L22.4707 29.2617L16.9531 23.7432V31.6416H11.958V23.2441L16.8828 23.7793L20.1406 19.9414L20.2559 14.8984L11.958 23.2402V23.2354L5.93262 29.2617L2.40137 25.7295L8.20703 19.9238H0V14.9287H8.13867L2.40137 9.19141L5.93262 5.66016L11.958 11.6855V3.25879H16.9531V11.1777Z" fill="#E2FD48"/>
<path d="M44.0524 28.9864C42.1155 28.9864 40.397 28.5401 38.8968 27.6476C37.3967 26.7362 36.2288 25.4829 35.3933 23.8878C34.5767 22.2927 34.1685 20.4887 34.1685 18.4758C34.1685 16.425 34.5767 14.6115 35.3933 13.0354C36.2288 11.4403 37.3967 10.206 38.8968 9.33252C40.397 8.44002 42.1155 7.99378 44.0524 7.99378C45.9893 7.99378 47.7078 8.43053 49.208 9.30403C50.7271 10.2155 51.8949 11.4688 52.7115 13.0639C53.528 14.64 53.9363 16.444 53.9363 18.4758C53.9363 18.8366 53.8888 19.4728 53.7939 20.3843V28.5876C52.7495 28.5876 52.0089 28.4452 51.5721 28.1604C51.1354 27.8755 50.8126 27.3628 50.6037 26.6222C49.7492 27.3818 48.7617 27.961 47.6413 28.3597C46.54 28.7775 45.3437 28.9864 44.0524 28.9864ZM44.0524 25.4544C44.9639 25.4544 45.7519 25.3499 46.4165 25.1411C47.1002 24.9132 47.6508 24.5239 48.0686 23.9732C47.8787 23.9922 47.6224 24.0017 47.2995 24.0017C46.2551 24.0017 45.543 23.8023 45.1633 23.4035C44.8025 22.9858 44.6221 22.3022 44.6221 21.3527V20.6406H49.8346C49.9675 19.919 50.034 19.1689 50.034 18.3904C50.034 16.3395 49.5118 14.678 48.4674 13.4057C47.423 12.1334 45.9513 11.4973 44.0524 11.4973C42.1724 11.4973 40.7008 12.1429 39.6374 13.4342C38.574 14.7065 38.0423 16.387 38.0423 18.4758C38.0423 20.6216 38.574 22.3212 39.6374 23.5745C40.7198 24.8277 42.1914 25.4544 44.0524 25.4544ZM67.4919 13.3203V28.2743H65.1278C64.8619 28.2743 64.6246 28.1888 64.4157 28.0179C64.2258 27.847 64.1118 27.6287 64.0739 27.3628C63.0674 28.1793 61.8142 28.5876 60.314 28.5876C58.6809 28.5876 57.3992 28.1414 56.4687 27.2489C55.5382 26.3564 55.073 25.1221 55.073 23.546V13.3203H58.5195V23.3751C58.5195 24.0587 58.7284 24.5809 59.1462 24.9417C59.5639 25.3025 60.1716 25.4829 60.9691 25.4829C61.8806 25.4829 62.6212 25.198 63.1909 24.6284C63.7605 24.0397 64.0454 23.2896 64.0454 22.3781V13.3203H67.4919ZM75.8689 28.9579C74.4257 28.9579 73.1534 28.6161 72.052 27.9325C70.9696 27.2299 70.1246 26.2804 69.517 25.0841C68.9283 23.8878 68.634 22.568 68.634 21.1248C68.634 19.6437 68.9378 18.3144 69.5454 17.1371C70.1531 15.9408 70.9981 15.0008 72.0805 14.3172C73.1629 13.6336 74.3877 13.2918 75.7549 13.2918C77.2931 13.2918 78.5938 13.6811 79.6572 14.4596C80.7206 15.2382 81.4992 16.3111 81.9929 17.6783C82.5056 19.0455 82.724 20.5836 82.648 22.2927H72.2229C72.3938 23.413 72.7926 24.2865 73.4192 24.9132C74.0649 25.5208 74.8814 25.8247 75.8689 25.8247C77.464 25.8247 78.4894 25.1506 78.9451 23.8023C79.135 23.2896 79.4483 23.0333 79.8851 23.0333H82.5056C82.2777 24.8752 81.5751 26.3279 80.3978 27.3913C79.2395 28.4357 77.7298 28.9579 75.8689 28.9579ZM79.0021 19.3588C78.6793 17.327 77.5969 16.3111 75.7549 16.3111C74.8814 16.3111 74.1503 16.5769 73.5617 17.1086C72.973 17.6213 72.5647 18.3714 72.3369 19.3588H79.0021ZM96.1994 13.3203V28.2743H93.8353C93.5694 28.2743 93.3321 28.1888 93.1232 28.0179C92.9333 27.847 92.8194 27.6287 92.7814 27.3628C91.7749 28.1793 90.5217 28.5876 89.0215 28.5876C87.3884 28.5876 86.1067 28.1414 85.1762 27.2489C84.2457 26.3564 83.7805 25.1221 83.7805 23.546V13.3203H87.227V23.3751C87.227 24.0587 87.4359 24.5809 87.8537 24.9417C88.2714 25.3025 88.8791 25.4829 89.6766 25.4829C90.5881 25.4829 91.3287 25.198 91.8984 24.6284C92.4681 24.0397 92.7529 23.2896 92.7529 22.3781V13.3203H96.1994ZM104.576 28.9579C103.133 28.9579 101.861 28.6161 100.76 27.9325C99.6771 27.2299 98.8321 26.2804 98.2245 25.0841C97.6358 23.8878 97.3415 22.568 97.3415 21.1248C97.3415 19.6437 97.6453 18.3144 98.2529 17.1371C98.8606 15.9408 99.7056 15.0008 100.788 14.3172C101.87 13.6336 103.095 13.2918 104.462 13.2918C106.001 13.2918 107.301 13.6811 108.365 14.4596C109.428 15.2382 110.207 16.3111 110.7 17.6783C111.213 19.0455 111.431 20.5836 111.356 22.2927H100.93C101.101 23.413 101.5 24.2865 102.127 24.9132C102.772 25.5208 103.589 25.8247 104.576 25.8247C106.171 25.8247 107.197 25.1506 107.653 23.8023C107.843 23.2896 108.156 23.0333 108.593 23.0333H111.213C110.985 24.8752 110.283 26.3279 109.105 27.3913C107.947 28.4357 106.437 28.9579 104.576 28.9579ZM107.71 19.3588C107.387 17.327 106.304 16.3111 104.462 16.3111C103.589 16.3111 102.858 16.5769 102.269 17.1086C101.681 17.6213 101.272 18.3714 101.044 19.3588H107.71ZM116.191 28.5876H112.488V8.42103H126.189L125.306 11.8106H116.191V16.4535H124.052L123.198 19.7861H116.191V28.5876ZM132.143 28.9579C130.757 28.9579 129.513 28.6161 128.412 27.9325C127.311 27.2299 126.447 26.2804 125.82 25.0841C125.212 23.8878 124.909 22.568 124.909 21.1248C124.909 19.6437 125.212 18.3049 125.82 17.1086C126.447 15.9123 127.311 14.9818 128.412 14.3172C129.513 13.6336 130.757 13.2918 132.143 13.2918C133.587 13.2918 134.849 13.6431 135.932 14.3457C137.033 15.0293 137.878 15.9693 138.467 17.1656C139.074 18.3429 139.378 19.6627 139.378 21.1248C139.378 22.587 139.074 23.9163 138.467 25.1126C137.859 26.3089 137.005 27.2489 135.903 27.9325C134.802 28.6161 133.549 28.9579 132.143 28.9579ZM132.143 25.8247C133.302 25.8247 134.213 25.4164 134.878 24.5999C135.542 23.7643 135.875 22.606 135.875 21.1248C135.875 19.6437 135.542 18.4853 134.878 17.6498C134.213 16.7953 133.302 16.368 132.143 16.368C131.004 16.368 130.093 16.7953 129.409 17.6498C128.744 18.4853 128.412 19.6437 128.412 21.1248C128.412 22.587 128.744 23.7359 129.409 24.5714C130.093 25.4069 131.004 25.8247 132.143 25.8247ZM140.528 28.5876V13.6336H142.892C143.215 13.6336 143.471 13.7475 143.661 13.9754C143.87 14.1843 143.974 14.4691 143.974 14.8299C145.057 13.9374 146.139 13.4912 147.222 13.4912C147.753 13.4912 148.332 13.6146 148.959 13.8615V16.8807C148.313 16.7668 147.734 16.7098 147.222 16.7098C146.082 16.7098 145.256 17.0042 144.744 17.5928C144.231 18.1625 143.974 19.0835 143.974 20.3558V28.5876H140.528ZM150.111 28.5876V13.6336H152.475C152.76 13.6336 152.998 13.7285 153.187 13.9184C153.396 14.0893 153.52 14.3077 153.558 14.5735C154.032 14.1748 154.564 13.8709 155.153 13.6621C155.741 13.4342 156.349 13.3203 156.976 13.3203C157.735 13.3203 158.428 13.4817 159.055 13.8045C159.682 14.1273 160.204 14.5925 160.622 15.2002C161.134 14.5925 161.742 14.1273 162.445 13.8045C163.166 13.4817 163.926 13.3203 164.723 13.3203C166.186 13.3203 167.353 13.776 168.227 14.6875C169.1 15.599 169.537 16.8238 169.537 18.3619V28.5876H166.091V18.4474C166.091 17.8397 165.92 17.3555 165.578 16.9947C165.236 16.6149 164.79 16.425 164.239 16.425C163.499 16.425 162.862 16.7193 162.331 17.308C161.799 17.8777 161.533 18.5898 161.533 19.4443V28.5876H158.087V18.4474C158.087 17.8017 157.935 17.308 157.631 16.9662C157.346 16.6054 156.938 16.425 156.406 16.425C155.95 16.425 155.495 16.5769 155.039 16.8807C154.602 17.1846 154.241 17.5739 153.956 18.0486C153.691 18.5043 153.558 18.9696 153.558 19.4443V28.5876H150.111Z" fill="black"/>
</svg>
